<svg width="499" height="500" viewBox="0 0 499 500" fill="none" xmlns="http://www.w3.org/2000/svg">
<path d="M116.983 266.038C164.346 266.038 205.135 294.186 223.534 334.666C225.806 339.663 221.961 345.071 216.472 345.071H160.919C156.501 345.071 152.919 348.652 152.919 353.071V488.55C152.919 492.022 150.686 495.125 147.332 496.024C137.653 498.617 127.479 500 116.983 500C106.269 500 95.8911 498.559 86.033 495.862C82.6982 494.949 80.4841 491.856 80.4841 488.399V353.071C80.4841 348.652 76.9024 345.071 72.4841 345.071H17.4923C12.0033 345.071 8.15892 339.663 10.4302 334.666C28.8297 294.186 69.6188 266.038 116.983 266.038Z" fill="white"/>
<path d="M224.341 355.131C228.027 355.131 231.265 357.645 231.946 361.267C233.272 368.315 233.965 375.586 233.965 383.019C233.965 426.981 209.714 465.278 173.861 485.265C168.846 488.061 162.98 484.225 162.98 478.483V363.131C162.98 358.712 166.562 355.131 170.98 355.131H224.341Z" fill="white"/>
<path d="M70.4234 478.171C70.4234 483.931 64.5248 487.766 59.5102 484.932C23.9831 464.855 7.47678e-05 426.738 0 383.019C0 375.586 0.693083 368.315 2.01836 361.267C2.69955 357.645 5.93764 355.131 9.62382 355.131H62.4234C66.8417 355.131 70.4234 358.712 70.4234 363.131V478.171Z" fill="white"/>
<path d="M382.018 0C392.732 1.78449e-05 403.109 1.44052 412.968 4.13814C416.302 5.05067 418.516 8.14394 418.516 11.6013V222.361C418.516 225.818 416.302 228.911 412.968 229.824C403.109 232.521 392.732 233.962 382.018 233.962C371.521 233.962 361.347 232.579 351.668 229.986C348.314 229.087 346.081 225.984 346.081 222.512V11.4495C346.081 7.97719 348.314 4.87406 351.668 3.97553C361.347 1.38259 371.521 0 382.018 0Z" fill="white"/>
<path d="M336.02 212.445C336.02 218.186 330.155 222.023 325.14 219.227C289.286 199.24 265.035 160.943 265.035 116.981C265.035 73.0192 289.286 34.7212 325.14 14.7342C330.155 11.9384 336.02 15.7748 336.02 21.5167V212.445Z" fill="white"/>
<path d="M428.577 21.8284C428.577 16.0684 434.475 12.2335 439.49 15.0674C475.017 35.1449 499 73.2623 499 116.981C499 160.7 475.017 198.816 439.49 218.894C434.475 221.728 428.577 217.893 428.577 212.133V21.8284Z" fill="white"/>
<path d="M382.018 266.038C392.732 266.038 403.109 267.479 412.968 270.176C416.302 271.089 418.516 274.182 418.516 277.639V488.398C418.516 491.856 416.302 494.949 412.968 495.861C403.109 498.559 392.732 500 382.018 500C371.521 500 361.347 498.617 351.668 496.024C348.314 495.125 346.081 492.022 346.081 488.55V277.488C346.081 274.015 348.314 270.912 351.668 270.014C361.347 267.421 371.521 266.038 382.018 266.038Z" fill="white"/>
<path d="M336.02 478.483C336.02 484.225 330.155 488.061 325.14 485.265C289.286 465.278 265.035 426.981 265.035 383.019C265.035 339.057 289.286 300.759 325.14 280.772C330.155 277.977 336.02 281.813 336.02 287.555V478.483Z" fill="white"/>
<path d="M428.577 287.867C428.577 282.107 434.475 278.272 439.49 281.106C475.017 301.183 499 339.301 499 383.019C499 426.738 475.017 464.855 439.49 484.932C434.475 487.766 428.577 483.931 428.577 478.171V287.867Z" fill="white"/>
<path d="M116.983 0C160.264 5.92768e-05 198.055 23.5049 218.288 58.4458C221.191 63.4586 217.359 69.4167 211.567 69.4167H85.5142C82.7362 69.4167 80.4841 71.6687 80.4841 74.4467C80.4841 77.2247 82.7362 79.4767 85.5142 79.4767H222.084C225.515 79.4767 228.59 81.6567 229.527 84.9566C232.418 95.1342 233.965 105.877 233.965 116.981C233.965 181.588 181.59 233.962 116.983 233.962C73.8954 233.962 36.2488 210.668 15.9498 175.986C13.0164 170.974 16.8466 164.99 22.6536 164.99H147.889C150.667 164.99 152.919 162.738 152.919 159.96C152.919 157.182 150.667 154.93 147.889 154.93H12.0085C8.59001 154.93 5.52255 152.765 4.57455 149.481C1.59637 139.162 1.54488e-05 128.258 0 116.981C0 52.3743 52.375 0 116.983 0Z" fill="white"/>
</svg>
