<svg width="750" height="171" viewBox="0 0 750 171" fill="none" xmlns="http://www.w3.org/2000/svg">
<path d="M471.575 0C505.029 4.59463e-05 533.982 19.3214 547.944 47.4431C550.383 52.3568 546.545 57.7639 541.059 57.7639H505.767C501.349 57.7639 497.767 61.3456 497.767 65.7639V161.069C497.767 164.538 495.538 167.65 492.171 168.488C485.575 170.129 478.677 171 471.575 171C464.313 171 457.262 170.089 450.531 168.376C447.183 167.523 444.974 164.421 444.974 160.966V65.7639C444.974 61.3456 441.392 57.7639 436.974 57.7639H402.09C396.604 57.7639 392.766 52.3568 395.206 47.4431C409.168 19.3213 438.122 0 471.575 0Z" fill="white"/>
<path d="M548.114 65.1167C551.802 65.1167 555.052 67.6328 555.66 71.2705C556.433 75.8983 556.835 80.6522 556.835 85.5002C556.835 116.451 540.436 143.56 515.876 158.566C510.973 161.562 505.099 157.742 505.099 151.996V73.1167C505.099 68.6984 508.681 65.1167 513.099 65.1167H548.114Z" fill="white"/>
<path d="M437.642 151.75C437.642 157.513 431.735 161.331 426.835 158.296C402.519 143.236 386.315 116.266 386.315 85.5002C386.315 80.6522 386.717 75.8983 387.49 71.2705C388.098 67.6328 391.348 65.1167 395.036 65.1167H429.642C434.06 65.1167 437.642 68.6984 437.642 73.1167V151.75Z" fill="white"/>
<path d="M278.425 0C285.688 1.21303e-05 292.738 0.910715 299.469 2.62429C302.817 3.47665 305.026 6.57871 305.026 10.0336V160.966C305.026 164.421 302.817 167.523 299.469 168.376C292.738 170.089 285.688 171 278.425 171C271.324 171 264.425 170.129 257.829 168.488C254.462 167.65 252.233 164.538 252.233 161.069V9.93109C252.233 6.46117 254.462 3.34918 257.829 2.51152C264.425 0.870742 271.324 0 278.425 0Z" fill="white"/>
<path d="M244.901 151.996C244.901 157.742 239.027 161.562 234.125 158.566C209.565 143.56 193.165 116.451 193.165 85.5002C193.165 54.5496 209.565 27.4401 234.125 12.4332C239.027 9.43757 244.901 13.2578 244.901 19.0032V151.996Z" fill="white"/>
<path d="M312.359 19.25C312.359 13.4865 318.265 9.66855 323.165 12.7033C347.481 27.764 363.685 54.7344 363.685 85.5002C363.685 116.266 347.481 143.236 323.165 158.296C318.265 161.331 312.359 157.513 312.359 151.75V19.25Z" fill="white"/>
<path d="M664.74 0C672.003 1.21303e-05 679.053 0.910714 685.784 2.62429C689.132 3.47665 691.341 6.57871 691.341 10.0336V160.966C691.341 164.421 689.132 167.523 685.784 168.375C679.053 170.089 672.003 171 664.74 171C657.638 171 650.74 170.129 644.144 168.488C640.777 167.65 638.548 164.538 638.548 161.069V9.93109C638.548 6.46117 640.777 3.34918 644.144 2.51152C650.74 0.870741 657.639 0 664.74 0Z" fill="white"/>
<path d="M631.216 151.996C631.216 157.742 625.342 161.562 620.44 158.566C595.88 143.56 579.48 116.451 579.48 85.5002C579.48 54.5496 595.879 27.4401 620.44 12.4332C625.342 9.43757 631.216 13.2578 631.216 19.0032V151.996Z" fill="white"/>
<path d="M698.673 19.25C698.673 13.4865 704.58 9.66855 709.48 12.7033C733.796 27.764 750 54.7344 750 85.5002C750 116.266 733.796 143.236 709.48 158.296C704.58 161.331 698.673 157.513 698.673 151.75V19.25Z" fill="white"/>
<path d="M85.2602 0C115.624 4.17034e-05 142.281 15.9177 157.386 39.8858C160.472 44.7834 156.657 50.7358 150.868 50.7358H62.3355C60.305 50.7358 58.6591 52.3818 58.6591 54.4122C58.6591 56.4427 60.305 58.0886 62.3355 58.0886H160.3C163.732 58.0886 166.82 60.27 167.695 63.5896C169.538 70.5824 170.52 77.9263 170.52 85.5002C170.52 132.72 132.348 171 85.2602 171C55.0433 171 28.4977 155.237 13.3549 131.463C10.2371 126.568 14.0499 120.589 19.8533 120.589H107.776C109.806 120.589 111.452 118.943 111.452 116.913C111.452 114.882 109.806 113.236 107.776 113.236H10.3071C6.88599 113.236 3.80685 111.07 2.92045 107.766C1.01602 100.667 1.05219e-05 93.2025 0 85.5002C0 38.2798 38.1723 0 85.2602 0Z" fill="white"/>
</svg>
